<?xml version="1.0" encoding="UTF-8" standalone="no" ?>
<!DOCTYPE svg PUBLIC "-//W3C//DTD SVG 1.1//EN" "http://www.w3.org/Graphics/SVG/1.1/DTD/svg11.dtd">
<svg xmlns="http://www.w3.org/2000/svg" xmlns:xlink="http://www.w3.org/1999/xlink" version="1.1" width="50" height="50" viewBox="0 0 400 400" xml:space="preserve">
<desc>Created with Fabric.js 3.6.2</desc>
<defs>
</defs>
<g transform="matrix(1.56 0 0 1.56 200 200)" id="XMLID_8_"  >
<path style="stroke: none; stroke-width: 1; stroke-dasharray: none; stroke-linecap: butt; stroke-dashoffset: 0; stroke-linejoin: miter; stroke-miterlimit: 4; fill: rgb(217,22,86); fill-rule: evenodd; opacity: 1;"  transform=" translate(-64, -64)" d="M 64 4 c 33.1 0 60 26.9 60 60 s -26.9 60 -60 60 S 4 97.1 4 64 S 30.9 4 64 4 L 64 4 z M 64 0 C 28.7 0 0 28.7 0 64 c 0 35.3 28.7 64 64 64 s 64 -28.7 64 -64 C 128 28.7 99.3 0 64 0 L 64 0 z M 47 64 L 33.4 77.6 c -4.7 4.7 -4.7 12.3 0 17 c 4.7 4.7 12.3 4.7 17 0 L 64 81 l 13.6 13.6 c 4.7 4.7 12.3 4.7 17 0 c 4.7 -4.7 4.7 -12.3 0 -17 L 81 64 l 13.6 -13.6 c 4.7 -4.7 4.7 -12.3 0 -17 c -4.7 -4.7 -12.3 -4.7 -17 0 L 64 47 L 50.4 33.4 c -4.7 -4.7 -12.3 -4.7 -17 0 c -4.7 4.7 -4.7 12.3 0 17 L 47 64 L 47 64 z M 36.2 80.4 c -3.1 3.1 -3.1 8.2 0 11.3 c 3.1 3.1 8.2 3.1 11.3 0 L 64 75.3 l 16.4 16.4 c 3.1 3.1 8.2 3.1 11.3 0 c 3.1 -3.1 3.1 -8.2 0 -11.3 L 75.3 64 l 16.4 -16.4 c 3.1 -3.1 3.1 -8.2 0 -11.3 c -3.1 -3.1 -8.2 -3.1 -11.3 0 L 64 52.7 L 47.6 36.2 c -3.1 -3.1 -8.2 -3.1 -11.3 0 c -3.1 3.1 -3.1 8.2 0 11.3 L 52.7 64 L 36.2 80.4 z" stroke-linecap="round" />
</g>
<g transform="matrix(1.56 0 0 1.56 199.92 200.08)" id="XMLID_1_"  >
<path style="stroke: none; stroke-width: 1; stroke-dasharray: none; stroke-linecap: butt; stroke-dashoffset: 0; stroke-linejoin: miter; stroke-miterlimit: 4; fill: rgb(238,102,166); fill-rule: evenodd; opacity: 1;"  transform=" translate(-63.95, -64.05)" d="M 36.2 80.4 L 52.7 64 L 36.2 47.6 c -3.1 -3.1 -3.1 -8.2 0 -11.3 c 3.1 -3.1 8.2 -3.1 11.3 0 L 64 52.7 l 16.4 -16.4 c 3.1 -3.1 8.2 -3.1 11.3 0 c 3.1 3.1 3.1 8.2 0 11.3 L 75.3 64 l 16.4 16.4 c 3.1 3.1 3.1 8.2 0 11.3 c -3.1 3.1 -8.2 3.1 -11.3 0 L 64 75.3 L 47.6 91.8 c -3.1 3.1 -8.2 3.1 -11.3 0 C 33.1 88.6 33.1 83.6 36.2 80.4 z" stroke-linecap="round" />
</g>
</svg>